<svg xmlns="http://www.w3.org/2000/svg" width="700" height="700" viewBox="0 0 700 700">
<g>
<path d="M 218.97 484.75 C222.20,493.06 222.00,493.24 213.43,489.94 C208.83,488.18 207.96,487.31 204.21,480.75 C192.86,460.86 187.67,438.74 189.95,419.96 C194.46,382.84 215.82,350.81 252.54,326.11 C264.27,318.21 283.46,308.32 308.00,297.52 C345.50,281.01 364.40,270.62 385.94,254.67 C422.65,227.50 448.02,193.28 459.43,155.54 C465.06,136.95 467.12,123.98 467.73,103.38 C468.20,87.28 466.94,60.95 465.31,52.78 C464.31,47.81 466.66,49.82 470.53,57.25 C472.61,61.24 476.20,67.88 478.51,72.00 C480.83,76.12 487.79,89.40 493.99,101.50 C500.18,113.60 507.39,127.55 510.00,132.50 C520.31,152.08 529.18,170.15 528.70,170.63 C528.42,170.91 520.53,168.53 511.15,165.35 C501.78,162.16 493.84,159.83 493.52,160.15 C493.19,160.47 491.62,165.93 490.01,172.28 C481.87,204.52 463.45,234.04 433.50,262.83 C404.62,290.59 371.96,311.50 323.27,333.38 C306.10,341.10 288.52,349.79 280.37,354.60 C260.65,366.23 244.71,379.90 233.57,394.75 C212.87,422.33 207.53,455.26 218.97,484.75 ZM 391.00 529.13 C377.58,530.82 367.58,531.26 337.50,531.52 C317.15,531.69 295.33,531.45 289.00,531.00 C245.68,527.90 199.98,518.20 169.00,505.54 C127.02,488.37 104.65,464.21 109.03,440.77 C110.58,432.44 115.59,423.37 122.39,416.58 C128.68,410.30 142.65,400.32 143.70,401.36 C144.02,401.69 140.69,405.45 136.30,409.73 C123.15,422.54 118.44,431.39 118.58,443.00 C118.70,452.37 121.54,458.12 130.30,466.70 C139.45,475.67 145.56,479.79 160.50,487.05 C187.04,499.95 230.02,510.75 274.00,515.57 C293.55,517.71 346.71,518.57 368.50,517.10 C419.96,513.63 471.88,501.60 503.37,485.86 C524.30,475.39 534.10,467.48 540.53,455.85 C543.17,451.10 543.50,449.55 543.50,442.00 C543.50,429.83 540.72,424.48 527.77,411.67 C522.30,406.26 518.09,401.57 518.41,401.25 C519.18,400.48 531.98,409.32 538.32,414.99 C544.32,420.37 549.46,428.11 552.08,435.73 C563.17,467.96 523.56,500.97 453.00,518.33 C434.11,522.98 418.98,525.62 391.00,529.13 ZM 281.00 199.99 C272.32,201.09 253.42,201.08 243.98,199.97 C225.20,197.77 210.34,191.43 206.48,183.96 C205.16,181.40 205.14,180.59 206.38,177.64 C210.25,168.36 227.58,162.50 254.50,161.36 C283.21,160.14 308.88,165.68 315.90,174.60 C318.55,177.97 318.61,183.33 316.05,186.93 C311.93,192.72 298.29,197.80 281.00,199.99 ZM 418.50 394.98 C406.13,396.13 402.09,396.11 390.16,394.86 C370.97,392.85 358.64,388.83 352.25,382.48 C347.11,377.37 346.81,374.42 350.97,369.68 C354.99,365.11 363.89,361.31 376.24,358.88 C385.16,357.13 389.32,356.92 408.00,357.31 C422.39,357.60 431.65,358.26 436.00,359.28 C452.65,363.21 461.00,368.57 461.00,375.32 C461.00,385.20 445.22,392.50 418.50,394.98 ZM 477.17 459.44 C468.69,462.27 468.00,462.39 468.00,461.13 C468.00,460.65 470.23,455.58 472.97,449.86 C482.34,430.24 491.09,400.11 494.47,375.81 C496.19,363.42 498.00,337.04 498.00,324.34 C498.00,315.77 497.83,315.01 495.55,313.21 C491.12,309.73 463.34,296.03 449.27,290.40 C441.70,287.36 435.18,284.57 434.80,284.18 C434.41,283.80 436.61,281.27 439.69,278.56 L 445.28 273.63 L 450.39 275.44 C464.56,280.47 504.56,300.73 510.25,305.76 C511.81,307.14 512.00,309.54 512.00,327.68 C512.00,363.29 507.68,393.16 497.84,425.50 C494.81,435.45 487.66,453.42 485.81,455.69 C485.28,456.35 481.39,458.04 477.17,459.44 ZM 343.61 600.61 C337.50,603.57 331.94,605.99 331.27,605.99 C330.59,606.00 322.94,602.42 314.27,598.04 C289.00,585.29 260.59,565.34 240.95,546.57 C233.77,539.71 233.07,538.76 235.60,539.25 C237.19,539.56 242.10,540.33 246.50,540.97 C250.90,541.61 255.49,542.33 256.70,542.57 C257.91,542.82 261.51,545.31 264.70,548.12 C278.84,560.55 300.65,575.09 319.84,584.88 L 331.60 590.87 L 342.63 585.06 C363.00,574.34 379.35,563.39 397.14,548.56 L 405.46 541.63 L 414.98 540.36 C415.70,540.27 416.39,540.18 417.04,540.09 C423.73,539.19 426.95,538.76 427.36,539.63 C427.74,540.45 425.68,542.40 421.69,546.16 C421.27,546.56 420.83,546.97 420.37,547.41 C398.31,568.31 370.36,587.68 343.61,600.61 ZM 429.00 445.47 C417.91,447.25 395.46,447.34 385.99,445.64 C378.05,444.22 375.77,442.65 364.36,430.72 C356.04,422.01 347.55,409.11 349.12,407.55 C349.44,407.23 351.72,408.10 354.20,409.49 C366.38,416.29 382.10,419.31 405.50,419.32 C417.70,419.33 425.18,418.83 432.00,417.54 C441.88,415.67 452.49,412.17 456.26,409.53 C460.65,406.46 461.00,407.22 461.00,419.78 C461.00,433.38 460.42,434.75 453.18,438.38 C446.32,441.82 439.68,443.76 429.00,445.47 ZM 172.32 432.15 C172.65,437.57 172.53,442.00 172.05,442.00 C170.17,442.00 161.38,414.69 157.58,397.00 C152.88,375.13 151.61,361.54 151.55,332.62 L 151.50 305.74 L 163.36 298.96 C176.54,291.42 196.00,282.59 196.00,284.15 C196.00,284.70 194.05,287.71 191.67,290.83 C189.29,293.95 186.32,298.35 185.06,300.62 C183.25,303.88 181.23,305.54 175.32,308.62 C170.86,310.94 168.25,312.06 166.76,314.03 C164.67,316.80 164.82,321.26 165.21,333.16 C165.25,334.46 165.30,335.86 165.35,337.35 C166.05,359.88 168.54,381.46 172.02,395.09 C173.93,402.58 174.01,404.07 172.91,412.78 C172.23,418.23 171.97,426.50 172.32,432.15 ZM 283.77 500.49 C275.58,501.82 261.27,502.40 258.50,501.53 C257.95,501.35 253.56,500.64 248.74,499.94 C243.92,499.24 239.61,498.18 239.17,497.59 C238.40,496.56 231.98,479.20 230.48,474.11 C229.79,471.76 229.87,471.73 234.64,472.32 C263.17,475.87 276.99,475.45 296.88,470.43 C306.67,467.97 307.26,467.92 309.08,469.58 C310.72,471.06 311.00,472.72 311.00,481.09 C311.00,490.62 310.93,490.91 308.25,492.79 C304.14,495.67 294.19,498.80 283.77,500.49 ZM 245.13 247.42 C241.89,249.39 239.07,250.97 238.87,250.93 C225.86,248.38 211.74,242.83 207.53,238.62 C205.10,236.19 205.00,235.60 205.00,224.05 C205.00,216.14 205.37,212.00 206.07,212.00 C206.66,212.00 209.02,213.10 211.32,214.43 C222.28,220.82 235.41,223.78 256.50,224.64 C270.11,225.19 285.19,224.22 293.00,222.29 C296.97,221.31 293.96,224.26 289.31,225.90 C283.36,228.01 251.69,243.44 245.13,247.42 ZM 280.43 449.88 C273.76,450.87 251.95,451.27 248.00,450.46 C247.18,450.30 243.01,449.61 238.75,448.94 C227.56,447.17 227.29,446.87 229.41,438.43 C230.36,434.65 232.08,429.35 233.24,426.65 L 235.36 421.74 L 241.93 422.49 C245.54,422.90 255.42,423.38 263.88,423.55 L 279.26 423.86 L 282.79 431.68 C284.73,435.98 287.37,441.08 288.67,443.00 C290.76,446.09 290.85,446.63 289.48,447.63 C288.63,448.26 284.56,449.27 280.43,449.88 ZM 272.39 399.18 C271.87,400.02 255.88,400.13 252.75,399.31 C251.79,399.06 251.00,398.49 251.00,398.04 C251.00,397.05 263.12,385.62 266.57,383.36 C267.94,382.46 269.32,381.99 269.63,382.30 C270.51,383.17 272.97,398.25 272.39,399.18 ZM 344.50 498.18 L 353.50 502.96 L 349.00 502.91 C337.80,502.78 321.75,492.95 328.51,490.36 C329.34,490.04 331.25,490.59 332.76,491.59 C334.27,492.58 339.55,495.54 344.50,498.18 ZM 213.00 268.84 C213.00,270.03 207.32,273.98 206.61,273.28 C205.85,272.52 205.79,265.00 206.55,265.00 C207.78,265.00 213.00,268.11 213.00,268.84 Z" fill="rgb(44,41,86)"/>
<path d="M 185.00 376.21 C185.00,376.64 184.62,377.00 184.14,377.00 C182.64,377.00 182.03,364.20 183.04,353.59 C186.59,316.09 206.81,288.81 250.00,263.24 C256.22,259.56 283.13,246.39 296.50,240.50 C332.43,224.66 351.90,212.37 371.40,193.23 C382.21,182.62 389.77,172.64 396.10,160.58 C400.27,152.66 405.85,136.52 404.80,135.46 C404.59,135.26 397.18,135.02 388.33,134.92 C379.47,134.83 371.61,134.38 370.86,133.91 C369.79,133.24 370.02,132.56 372.00,130.68 C373.38,129.37 379.46,123.62 385.52,117.90 C409.53,95.25 432.88,73.10 440.96,65.33 C445.63,60.83 449.74,57.34 450.09,57.56 C451.41,58.37 452.08,89.88 451.06,103.50 C446.36,166.57 416.59,213.88 357.46,252.25 C344.58,260.61 325.41,270.43 301.50,280.91 C247.74,304.48 221.23,322.69 200.71,350.14 C195.48,357.14 185.00,374.53 185.00,376.21 ZM 426.32 495.45 C417.44,497.07 405.42,497.94 399.50,497.38 C369.39,494.51 343.66,483.06 324.20,463.87 C310.89,450.74 301.39,436.21 293.64,417.15 C287.86,402.93 283.34,374.50 286.33,371.19 C288.24,369.08 327.76,349.43 328.53,350.20 C328.84,350.51 328.35,353.86 327.44,357.63 C326.34,362.19 325.78,368.88 325.78,377.50 C325.76,397.47 329.98,411.61 340.91,428.19 C346.86,437.23 360.89,450.92 371.43,457.99 C385.75,467.59 407.79,476.53 423.32,479.03 C433.97,480.75 457.88,479.71 468.50,477.06 C479.91,474.22 480.47,474.54 472.00,479.05 C457.37,486.86 440.85,492.79 426.32,495.45 Z" fill="rgb(192,178,229)"/>
<path d="M 0.00 350.00 L 0.00 0.00 L 350.00 0.00 L 700.00 0.00 L 700.00 350.00 L 700.00 700.00 L 350.00 700.00 L 0.00 700.00 L 0.00 350.00 ZM 343.61 600.61 C370.36,587.68 398.31,568.31 420.37,547.41 C430.38,537.92 430.66,538.28 414.98,540.36 L 405.46 541.63 L 397.14 548.56 C379.35,563.39 363.00,574.34 342.63,585.06 L 331.60 590.87 L 319.84 584.88 C300.65,575.09 278.84,560.55 264.70,548.12 C261.51,545.31 257.91,542.82 256.70,542.57 C255.49,542.33 250.90,541.61 246.50,540.97 C242.10,540.33 237.19,539.56 235.60,539.25 C233.07,538.76 233.77,539.71 240.95,546.57 C260.59,565.34 289.00,585.29 314.27,598.04 C322.94,602.42 330.59,606.00 331.27,605.99 C331.94,605.99 337.50,603.57 343.61,600.61 ZM 391.00 529.13 C418.98,525.62 434.11,522.98 453.00,518.33 C523.56,500.97 563.17,467.96 552.08,435.73 C549.46,428.11 544.32,420.37 538.32,414.99 C531.98,409.32 519.18,400.48 518.41,401.25 C518.09,401.57 522.30,406.26 527.77,411.67 C540.72,424.48 543.50,429.83 543.50,442.00 C543.50,449.55 543.17,451.10 540.53,455.85 C534.10,467.48 524.30,475.39 503.37,485.86 C471.88,501.60 419.96,513.63 368.50,517.10 C346.71,518.57 293.55,517.71 274.00,515.57 C230.02,510.75 187.04,499.95 160.50,487.05 C145.56,479.79 139.45,475.67 130.30,466.70 C121.54,458.12 118.70,452.37 118.58,443.00 C118.44,431.39 123.15,422.54 136.30,409.73 C140.69,405.45 144.02,401.69 143.70,401.36 C142.65,400.32 128.68,410.30 122.39,416.58 C115.59,423.37 110.58,432.44 109.03,440.77 C104.65,464.21 127.02,488.37 169.00,505.54 C199.98,518.20 245.68,527.90 289.00,531.00 C295.33,531.45 317.15,531.69 337.50,531.52 C367.58,531.26 377.58,530.82 391.00,529.13 ZM 344.50 498.18 C339.55,495.54 334.27,492.58 332.76,491.59 C331.25,490.59 329.34,490.04 328.51,490.36 C321.75,492.95 337.80,502.78 349.00,502.91 L 353.50 502.96 L 344.50 498.18 ZM 283.77 500.49 C294.19,498.80 304.14,495.67 308.25,492.79 C310.93,490.91 311.00,490.62 311.00,481.09 C311.00,472.72 310.72,471.06 309.08,469.58 C307.26,467.92 306.67,467.97 296.88,470.43 C276.99,475.45 263.17,475.87 234.64,472.32 C229.87,471.73 229.79,471.76 230.48,474.11 C231.98,479.20 238.40,496.56 239.17,497.59 C239.61,498.18 243.92,499.24 248.74,499.94 C253.56,500.64 257.95,501.35 258.50,501.53 C261.27,502.40 275.58,501.82 283.77,500.49 ZM 426.32 495.45 C440.85,492.79 457.37,486.86 472.00,479.05 C480.47,474.54 479.91,474.22 468.50,477.06 C457.88,479.71 433.97,480.75 423.32,479.03 C407.79,476.53 385.75,467.59 371.43,457.99 C360.89,450.92 346.86,437.23 340.91,428.19 C329.98,411.61 325.76,397.47 325.78,377.50 C325.78,368.88 326.34,362.19 327.44,357.63 C328.35,353.86 328.84,350.51 328.53,350.20 C327.76,349.43 288.24,369.08 286.33,371.19 C283.34,374.50 287.86,402.93 293.64,417.15 C301.39,436.21 310.89,450.74 324.20,463.87 C343.66,483.06 369.39,494.51 399.50,497.38 C405.42,497.94 417.44,497.07 426.32,495.45 ZM 218.97 484.75 C207.53,455.26 212.87,422.33 233.57,394.75 C244.71,379.90 260.65,366.23 280.37,354.60 C288.52,349.79 306.10,341.10 323.27,333.38 C371.96,311.50 404.62,290.59 433.50,262.83 C463.45,234.04 481.87,204.52 490.01,172.28 C491.62,165.93 493.19,160.47 493.52,160.15 C493.84,159.83 501.78,162.16 511.15,165.35 C520.53,168.53 528.42,170.91 528.70,170.63 C529.18,170.15 520.31,152.08 510.00,132.50 C507.39,127.55 500.18,113.60 493.99,101.50 C487.79,89.40 480.83,76.12 478.51,72.00 C476.20,67.88 472.61,61.24 470.53,57.25 C466.66,49.82 464.31,47.81 465.31,52.78 C466.94,60.95 468.20,87.28 467.73,103.38 C467.12,123.98 465.06,136.95 459.43,155.54 C448.02,193.28 422.65,227.50 385.94,254.67 C364.40,270.62 345.50,281.01 308.00,297.52 C283.46,308.32 264.27,318.21 252.54,326.11 C215.82,350.81 194.46,382.84 189.95,419.96 C187.67,438.74 192.86,460.86 204.21,480.75 C207.96,487.31 208.83,488.18 213.43,489.94 C222.00,493.24 222.20,493.06 218.97,484.75 ZM 477.17 459.44 C481.39,458.04 485.28,456.35 485.81,455.69 C487.66,453.42 494.81,435.45 497.84,425.50 C507.68,393.16 512.00,363.29 512.00,327.68 C512.00,309.54 511.81,307.14 510.25,305.76 C504.56,300.73 464.56,280.47 450.39,275.44 L 445.28 273.63 L 439.69 278.56 C436.61,281.27 434.41,283.80 434.80,284.18 C435.18,284.57 441.70,287.36 449.27,290.40 C463.34,296.03 491.12,309.73 495.55,313.21 C497.83,315.01 498.00,315.77 498.00,324.34 C498.00,337.04 496.19,363.42 494.47,375.81 C491.09,400.11 482.34,430.24 472.97,449.86 C470.23,455.58 468.00,460.65 468.00,461.13 C468.00,462.39 468.69,462.27 477.17,459.44 ZM 280.43 449.88 C284.56,449.27 288.63,448.26 289.48,447.63 C290.85,446.63 290.76,446.09 288.67,443.00 C287.37,441.08 284.73,435.98 282.79,431.68 L 279.26 423.86 L 263.88 423.55 C255.42,423.38 245.54,422.90 241.93,422.49 L 235.36 421.74 L 233.24 426.65 C232.08,429.35 230.36,434.65 229.41,438.43 C227.29,446.87 227.56,447.17 238.75,448.94 C243.01,449.61 247.18,450.30 248.00,450.46 C251.95,451.27 273.76,450.87 280.43,449.88 ZM 429.00 445.47 C439.68,443.76 446.32,441.82 453.18,438.38 C460.42,434.75 461.00,433.38 461.00,419.78 C461.00,407.22 460.65,406.46 456.26,409.53 C452.49,412.17 441.88,415.67 432.00,417.54 C425.18,418.83 417.70,419.33 405.50,419.32 C382.10,419.31 366.38,416.29 354.20,409.49 C351.72,408.10 349.44,407.23 349.12,407.55 C347.55,409.11 356.04,422.01 364.36,430.72 C375.77,442.65 378.05,444.22 385.99,445.64 C395.46,447.34 417.91,447.25 429.00,445.47 ZM 172.32 432.15 C171.97,426.50 172.23,418.23 172.91,412.78 C174.01,404.07 173.93,402.58 172.02,395.09 C168.54,381.46 166.05,359.88 165.35,337.35 C164.58,312.61 163.90,314.57 175.32,308.62 C181.23,305.54 183.25,303.88 185.06,300.62 C186.32,298.35 189.29,293.95 191.67,290.83 C194.05,287.71 196.00,284.70 196.00,284.15 C196.00,282.59 176.54,291.42 163.36,298.96 L 151.50 305.74 L 151.55 332.62 C151.61,361.54 152.88,375.13 157.58,397.00 C161.38,414.69 170.17,442.00 172.05,442.00 C172.53,442.00 172.65,437.57 172.32,432.15 ZM 272.39 399.18 C272.97,398.25 270.51,383.17 269.63,382.30 C269.32,381.99 267.94,382.46 266.57,383.36 C263.12,385.62 251.00,397.05 251.00,398.04 C251.00,398.49 251.79,399.06 252.75,399.31 C255.88,400.13 271.87,400.02 272.39,399.18 ZM 418.50 394.98 C445.22,392.50 461.00,385.20 461.00,375.32 C461.00,368.57 452.65,363.21 436.00,359.28 C431.65,358.26 422.39,357.60 408.00,357.31 C389.32,356.92 385.16,357.13 376.24,358.88 C363.89,361.31 354.99,365.11 350.97,369.68 C346.81,374.42 347.11,377.37 352.25,382.48 C358.64,388.83 370.97,392.85 390.16,394.86 C402.09,396.11 406.13,396.13 418.50,394.98 ZM 185.00 376.21 C185.00,374.53 195.48,357.14 200.71,350.14 C221.23,322.69 247.74,304.48 301.50,280.91 C325.41,270.43 344.58,260.61 357.46,252.25 C416.59,213.88 446.36,166.57 451.06,103.50 C452.08,89.88 451.41,58.37 450.09,57.56 C449.74,57.34 445.63,60.83 440.96,65.33 C432.88,73.10 409.53,95.25 385.52,117.90 C379.46,123.62 373.38,129.37 372.00,130.68 C370.02,132.56 369.79,133.24 370.86,133.91 C371.61,134.38 379.47,134.83 388.33,134.92 C397.18,135.02 404.59,135.26 404.80,135.46 C405.85,136.52 400.27,152.66 396.10,160.58 C389.77,172.64 382.21,182.62 371.40,193.23 C351.90,212.37 332.43,224.66 296.50,240.50 C283.13,246.39 256.22,259.56 250.00,263.24 C206.81,288.81 186.59,316.09 183.04,353.59 C182.03,364.20 182.64,377.00 184.14,377.00 C184.62,377.00 185.00,376.64 185.00,376.21 ZM 213.00 268.84 C213.00,268.11 207.78,265.00 206.55,265.00 C205.79,265.00 205.85,272.52 206.61,273.28 C207.32,273.98 213.00,270.03 213.00,268.84 ZM 245.13 247.42 C251.69,243.44 283.36,228.01 289.31,225.90 C293.96,224.26 296.97,221.31 293.00,222.29 C285.19,224.22 270.11,225.19 256.50,224.64 C235.41,223.78 222.28,220.82 211.32,214.43 C209.02,213.10 206.66,212.00 206.07,212.00 C205.37,212.00 205.00,216.14 205.00,224.05 C205.00,235.60 205.10,236.19 207.53,238.62 C211.74,242.83 225.86,248.38 238.87,250.93 C239.07,250.97 241.89,249.39 245.13,247.42 ZM 281.00 199.99 C298.29,197.80 311.93,192.72 316.05,186.93 C318.61,183.33 318.55,177.97 315.90,174.60 C308.88,165.68 283.21,160.14 254.50,161.36 C227.58,162.50 210.25,168.36 206.38,177.64 C205.14,180.59 205.16,181.40 206.48,183.96 C210.34,191.43 225.20,197.77 243.98,199.97 C253.42,201.08 272.32,201.09 281.00,199.99 Z" fill="rgb(254,254,254)"/>
</g>
</svg>